<?xml version="1.0" standalone="no"?>
<!DOCTYPE svg PUBLIC "-//W3C//DTD SVG 20010904//EN"
 "http://www.w3.org/TR/2001/REC-SVG-20010904/DTD/svg10.dtd">
<svg version="1.0" xmlns="http://www.w3.org/2000/svg"
 width="200.000000pt" height="200.000000pt" viewBox="0 0 200.000000 200.000000"
 preserveAspectRatio="xMidYMid meet">
<metadata>
Created by potrace 1.11, written by Peter Selinger 2001-2013
</metadata>
<g transform="translate(0.000000,200.000000) scale(0.100000,-0.100000)"
fill="#000000" stroke="none">
<path d="M390 1081 l0 -811 407 0 c254 0 431 4 472 11 247 42 406 242 388 489
-6 90 -29 154 -77 218 -39 51 -120 105 -189 126 l-44 12 54 31 c68 38 123 99
158 172 23 49 26 69 26 161 0 93 -3 112 -27 162 -31 67 -95 140 -153 173 -87
52 -137 57 -592 62 l-423 5 0 -811z m838 606 c100 -39 142 -97 150 -209 7 -93
-12 -152 -63 -204 -72 -72 -100 -77 -427 -82 l-288 -4 0 262 0 262 293 -4
c243 -3 299 -7 335 -21z m-6 -688 c70 -15 139 -51 172 -89 55 -66 70 -203 32
-294 -22 -53 -81 -111 -139 -137 -51 -23 -60 -24 -369 -27 l-318 -3 0 280 0
281 285 0 c172 0 305 -4 337 -11z"/>
<path d="M200 155 l0 -65 795 0 795 0 0 65 0 65 -795 0 -795 0 0 -65z"/>
</g>
</svg>
